<svg width="1320" height="196" 
    xmlns="http://www.w3.org/2000/svg">
    <!-- Created with Method Draw - http://github.com/duopixel/Method-Draw/ -->
    <g>
        <title>Layer 1</title>
    </g>
    <g>
        <linearGradient id="lg-1" x1="0" x2="1">
            <stop offset="0%" stop-color="#ffffff10"/>
            <stop offset="25%" stop-color="#ffffff5a"/>
            <stop offset="100%" stop-color="#ffffffef"/>
        </linearGradient>
        <linearGradient id="lg-2" x1="0" x2="1">
            <stop offset="0%" stop-color="#ffffff05"/>
            <stop offset="55%" stop-color="#ffffff5a"/>
            <stop offset="100%" stop-color="#ffffffec"/>
        </linearGradient>
        <linearGradient id="lg-3" x1="0" x2="1">
            <stop offset="0%" stop-color="#ffffff85"/>
            <stop offset="40%" stop-color="#ffffffac"/>
            <stop offset="100%" stop-color="#fffffffa"/>
        </linearGradient>
        <path id="svg_1" d="m10.5,197.9375c189.333353,-236.999998 188.666686,-235.666665 403.666708,0c215.000022,235.666665 -10.097218,4.588542 -49.145841,2.882812c-173.229183,-191.033848 -159.770846,-192.184894 -306.354194,-5.153646" fill="url(#lg-1)"/>
        <path id="svg_2" d="m318.500036,-5.729168c42.833335,129.5 90.885416,185.0664 165.104166,192.13281c74.21875,7.06641 486.032602,-134.22803 509.559952,-149.49707c23.52735,-15.26904 48.830075,-38.91625 36.954105,-55.11926c-5.93799,-8.1015 -59.254,-52.591947 -57.40061,-9.118547c1.85339,43.4734 -45.687598,53.381036 -66.60778,61.477089c-10.460091,4.048026 -108.448852,39.537777 -187.528348,67.323881c-79.079495,27.786104 -203.249753,47.868562 -234.072824,53.102017c-61.646143,10.46691 -106.110213,-103.843559 -124.508653,-153.905079" fill="url(#lg-2)"/>
        <path id="svg_3" d="m882.107876,201.212011c178.49998,-222.000008 182.99998,-219.500007 433.104191,-2.700521c-35.382823,12.674592 -14.765622,6.68251 -47.481776,8.690432c-196.90368,-188.100596 -187.914093,-182.359707 -340.122415,-4.927411l-45.5,-1.0625z" fill="url(#lg-3)"/>
    </g>
</svg>